# xmcd
#
# Track frame offsets: 
#        150
#        20448
#        40886
#        61202
#        81617
#        97611
#        122829
#        141595
#        159115
#        177930
#        199358
#
# Disc length: 2978 seconds
#
# Revision: 0
# Processed by: cddbd v1.5.2PL0 Copyright (c) Steve Scherf et al.
# Submitted via: ExactAudioCopy v0.99pb4
#
DISCID=920ba00b
DTITLE=Rodney Crowell - Sex and Gasoline
DYEAR=2008
DGENRE=Country
TTITLE0=Sex and Gasoline
TTITLE1=Moving Work Of Art
TTITLE2=The Rise And Fall Of Intelligent Design
TTITLE3=Truth Decay
TTITLE4=I Want You #35
TTITLE5=I've Done Everything I Can
TTITLE6=Who Do You Trust
TTITLE7=The Night's Just Right
TTITLE8=Funky And The Farm Boy
TTITLE9=Forty Winters
TTITLE10=Closer To Heaven
EXTD=
EXTT0=
EXTT1=
EXTT2=
EXTT3=
EXTT4=
EXTT5=
EXTT6=
EXTT7=
EXTT8=
EXTT9=
EXTT10=
PLAYORDER=
